<svg xmlns="http://www.w3.org/2000/svg" data-name="Layer 1" id="Layer_1" viewBox="5 5 90 90"><title/><path d="M50,5A45,45,0,1,0,95,50,45.00058,45.00058,0,0,0,50,5ZM80.40552,80.40552A42.99965,42.99965,0,1,1,93,50,42.86137,42.86137,0,0,1,80.40552,80.40552Z"/><path d="M66,31H58a3.00042,3.00042,0,0,0-3,3V66a3.00045,3.00045,0,0,0,3,3h8a3.00045,3.00045,0,0,0,3-3V34A3.00042,3.00042,0,0,0,66,31Zm1,35a1.002,1.002,0,0,1-1,1H58a1.002,1.002,0,0,1-1-1V34a1.00193,1.00193,0,0,1,1-1h8a1.00193,1.00193,0,0,1,1,1Z"/><path d="M42,31H34a3.00042,3.00042,0,0,0-3,3V66a3.00045,3.00045,0,0,0,3,3h8a3.00045,3.00045,0,0,0,3-3V34A3.00042,3.00042,0,0,0,42,31Zm1,35a1.002,1.002,0,0,1-1,1H34a1.002,1.002,0,0,1-1-1V34a1.00193,1.00193,0,0,1,1-1h8a1.00193,1.00193,0,0,1,1,1Z"/></svg>