<svg xmlns="http://www.w3.org/2000/svg" xmlns:xlink="http://www.w3.org/1999/xlink" style="enable-background:new 0 0 512 512;" version="1.1" xml:space="preserve" viewBox="43 43 426 426"><style type="text/css">
<![CDATA[
	.st0{display:inline;}
	.st1{fill:none;stroke:#000000;stroke-width:16;stroke-linecap:round;stroke-linejoin:round;stroke-miterlimit:10;}
	.st2{display:none;}
]]>
</style><g class="st2" id="layer"><g class="st0"><g><path d="M256,59c26.602,0,52.399,5.207,76.677,15.475c23.456,9.921,44.526,24.128,62.623,42.225     c18.098,18.098,32.304,39.167,42.226,62.624C447.794,203.601,453,229.398,453,256c0,26.602-5.206,52.399-15.475,76.677     c-9.922,23.456-24.128,44.526-42.226,62.623c-18.097,18.098-39.167,32.304-62.623,42.226C308.399,447.794,282.602,453,256,453     c-26.602,0-52.399-5.206-76.676-15.475c-23.457-9.922-44.526-24.128-62.624-42.226c-18.097-18.097-32.304-39.167-42.225-62.623     C64.207,308.399,59,282.602,59,256c0-26.602,5.207-52.399,15.475-76.676c9.921-23.457,24.128-44.526,42.225-62.624     c18.098-18.097,39.167-32.304,62.624-42.225C203.601,64.207,229.398,59,256,59 M256,43C138.363,43,43,138.363,43,256     s95.363,213,213,213s213-95.363,213-213S373.637,43,256,43L256,43z"/></g><polygon class="st1" points="211,169 333,256 211,343   "/></g></g><g id="expanded"><g><path d="M256,59c26.602,0,52.399,5.207,76.677,15.475c23.456,9.921,44.526,24.128,62.623,42.225    c18.098,18.098,32.304,39.167,42.226,62.624C447.794,203.601,453,229.398,453,256c0,26.602-5.206,52.399-15.475,76.677    c-9.922,23.456-24.128,44.526-42.226,62.623c-18.097,18.098-39.167,32.304-62.623,42.226C308.399,447.794,282.602,453,256,453    c-26.602,0-52.399-5.206-76.676-15.475c-23.457-9.922-44.526-24.128-62.624-42.226c-18.097-18.097-32.304-39.167-42.225-62.623    C64.207,308.399,59,282.602,59,256c0-26.602,5.207-52.399,15.475-76.676c9.921-23.457,24.128-44.526,42.225-62.624    c18.098-18.097,39.167-32.304,62.624-42.225C203.601,64.207,229.398,59,256,59 M256,43C138.363,43,43,138.363,43,256    s95.363,213,213,213s213-95.363,213-213S373.637,43,256,43L256,43z"/><g><path d="M210.999,351c-1.251,0-2.508-0.293-3.663-0.888C204.673,348.74,203,345.995,203,343V169c0-2.996,1.673-5.74,4.336-7.112     c2.663-1.373,5.869-1.141,8.309,0.598l122,87C339.75,250.988,341,253.414,341,256s-1.25,5.012-3.355,6.514l-122,87     C214.263,350.499,212.635,351,210.999,351z M219,184.531V327.47L319.222,256L219,184.531z"/></g></g></g></svg>