<svg xmlns="http://www.w3.org/2000/svg" xmlns:xlink="http://www.w3.org/1999/xlink" style="enable-background:new 0 0 512 512;" version="1.1" xml:space="preserve" viewBox="26 26 460 460"><g id="_x33_15-spotify"><g><path d="M256,26.001c-126.965,0-230,103.035-230,229.999c0,126.963,103.035,229.999,230,229.999    c126.962,0,229.999-103.036,229.999-229.999C485.999,129.036,382.963,26.001,256,26.001z" style="fill:#1AB26B;"/><path d="M349.391,364.416c-3.896,0-6.306-1.206-9.924-3.34c-57.87-34.869-125.2-36.355-191.697-22.723    c-3.617,0.928-8.347,2.413-11.036,2.413c-8.996,0-14.653-7.143-14.653-14.655c0-9.551,5.658-14.095,12.614-15.579    c75.954-16.786,153.579-15.304,219.797,24.298c5.657,3.618,8.996,6.864,8.996,15.302    C363.487,358.572,356.902,364.416,349.391,364.416L349.391,364.416z" style="fill:#FFFFFF;"/><path d="M374.339,303.576c-4.824,0-8.067-2.133-11.408-3.895c-57.964-34.314-144.399-48.133-221.281-27.265    c-4.452,1.204-6.863,2.408-11.036,2.408c-9.923,0-17.992-8.067-17.992-17.989c0-9.925,4.822-16.508,14.375-19.198    c25.783-7.234,52.121-12.612,90.703-12.612c60.187,0,118.337,14.931,164.151,42.195c7.512,4.452,10.48,10.201,10.48,18.271    C392.237,295.509,384.446,303.576,374.339,303.576z" style="fill:#FFFFFF;"/><path d="M403.087,232.907c-4.822,0-7.789-1.205-11.962-3.616c-66.032-39.415-184.093-48.875-260.512-27.544    c-3.338,0.927-7.512,2.41-11.965,2.41c-12.241,0-21.608-9.553-21.608-21.887c0-12.612,7.792-19.754,16.138-22.165    c32.645-9.553,69.184-14.097,108.971-14.097c67.703,0,138.648,14.097,190.492,44.331c7.234,4.173,11.963,9.922,11.963,20.96    C424.604,223.912,414.403,232.907,403.087,232.907L403.087,232.907z" style="fill:#FFFFFF;"/></g></g><g id="Layer_1"/></svg>